<svg version="1.1" id="Layer_1" xmlns="http://www.w3.org/2000/svg" xmlns:xlink="http://www.w3.org/1999/xlink" style="display:none;">
  <symbol viewBox="0 0 10 6" id="email">
   <title>email</title><g fill-rule="evenodd"><path d="M5 4.22L0 .888V6h10V.887L5 4.22z"/><path d="M9.95 0H.05L5 3.29 9.95 0z"/></g>
  </symbol>

  <symbol viewBox="0 0 25 22" id="twitter">
  	<title>Follow @patrickbjohnson on Twitter</title><path d="M25 3.227c-.92.408-1.908.684-2.946.808 1.06-.635 1.872-1.64 2.255-2.838-.992.588-2.09 1.015-3.258 1.245-.935-.997-2.268-1.62-3.743-1.62-2.834 0-5.13 2.296-5.13 5.13 0 .4.045.792.132 1.168C8.05 6.906 4.27 4.864 1.74 1.76c-.44.758-.694 1.64-.694 2.58 0 1.78.906 3.35 2.282 4.268-.84-.026-1.632-.257-2.323-.64v.063c0 2.487 1.767 4.56 4.114 5.03-.432.118-.885.18-1.353.18-.33 0-.652-.03-.965-.09.653 2.036 2.547 3.52 4.79 3.56-1.754 1.376-3.965 2.196-6.368 2.196-.414 0-.823-.024-1.224-.07 2.27 1.454 4.966 2.303 7.862 2.303 9.435 0 14.593-7.817 14.593-14.594 0-.223-.004-.444-.014-.664 1.003-.723 1.872-1.626 2.56-2.655"/>  	
  </symbol>

  <symbol viewBox="0 0 33 33" id="github">
  	<title>Checkout Github @patrickbjohnson</title><path d="M16.608.455C7.614.455.32 7.748.32 16.745c0 7.197 4.667 13.302 11.14 15.456.815.15 1.112-.352 1.112-.784 0-.386-.014-1.41-.022-2.77-4.53.984-5.487-2.184-5.487-2.184-.74-1.882-1.81-2.383-1.81-2.383-1.478-1.01.113-.99.113-.99C7 23.203 7.86 24.767 7.86 24.767c1.454 2.49 3.814 1.77 4.742 1.353.148-1.05.57-1.77 1.034-2.176-3.617-.41-7.42-1.81-7.42-8.05 0-1.78.635-3.234 1.677-4.372-.168-.412-.727-2.07.16-4.31 0 0 1.367-.44 4.48 1.67 1.298-.363 2.692-.543 4.077-.55 1.384.007 2.777.187 4.078.55 3.11-2.11 4.475-1.67 4.475-1.67.89 2.24.33 3.898.163 4.31C26.37 12.66 27 14.115 27 15.892c0 6.26-3.81 7.636-7.437 8.04.584.502 1.105 1.496 1.105 3.016 0 2.177-.02 3.934-.02 4.468 0 .436.294.943 1.12.784 6.468-2.16 11.13-8.26 11.13-15.455 0-8.997-7.293-16.29-16.29-16.29" fill-rule="evenodd"/>
  </symbol>
</svg>
