<?xml version="1.0" encoding="UTF-8" standalone="no"?>
<svg width="25px" height="22px" viewBox="0 0 25 22" version="1.1" xmlns="http://www.w3.org/2000/svg" xmlns:xlink="http://www.w3.org/1999/xlink" xmlns:sketch="http://www.bohemiancoding.com/sketch/ns">
    <!-- Generator: Sketch 3.4 (15575) - http://www.bohemiancoding.com/sketch -->
    <title>TwitterLogo_white</title>
    <desc>Created with Sketch.</desc>
    <defs></defs>
    <g id="Page-1" stroke="none" stroke-width="1" fill="none" fill-rule="evenodd" sketch:type="MSPage">
        <g id="TwitterLogo_white" sketch:type="MSLayerGroup" fill="#000000">
            <path d="M25,3.22708065 C24.0801602,3.63501438 23.0916456,3.91071941 22.0541168,4.0347181 C23.1131351,3.39991068 23.9263506,2.39475321 24.30932,1.19710516 C23.3183364,1.78481868 22.2206372,2.21168141 21.0523428,2.44175566 C20.1166831,1.44491964 18.7836973,0.822 17.3085153,0.822 C14.4758404,0.822 12.1793043,3.11844464 12.1793043,5.95093668 C12.1793043,6.35292652 12.2247522,6.74440023 12.3121731,7.11977973 C8.0493983,6.90589114 4.27009035,4.86393643 1.7403709,1.76086024 C1.29887706,2.51838612 1.0459417,3.39945345 1.0459417,4.33941102 C1.0459417,6.11882871 1.95151615,7.68874714 3.32775522,8.60849548 C2.48692344,8.58188515 1.69611178,8.35117078 1.00451736,7.96701262 C1.00415158,7.98841062 1.00415158,8.00990007 1.00415158,8.03148096 C1.00415158,10.5165755 2.7721387,12.5896213 5.11851202,13.0607432 C4.68808296,13.177975 4.23497568,13.2406144 3.76714584,13.2406144 C3.43666557,13.2406144 3.11532975,13.2085174 2.80222393,13.1486213 C3.45486302,15.1863696 5.34904349,16.6692329 7.59345623,16.7106572 C5.83808845,18.0862562 3.62650426,18.9062386 1.22352683,18.9062386 C0.809557775,18.9062386 0.401258276,18.8820059 0,18.8346376 C2.2698343,20.2898847 4.96589122,21.1389465 7.86239438,21.1389465 C17.2965361,21.1389465 22.4554665,13.3234631 22.4554665,6.54569143 C22.4554665,6.32329851 22.4505285,6.10209437 22.4406525,5.88217045 C23.4427009,5.15902769 24.3123377,4.2556479 25,3.22708065" id="Fill-1" sketch:type="MSShapeGroup"></path>
        </g>
    </g>
</svg>